<svg xmlns="http://www.w3.org/2000/svg" version="1.1" xmlns:xlink="http://www.w3.org/1999/xlink" xmlns:svgjs="http://svgjs.dev/svgjs" width="2000" height="1500" viewBox="0 0 2000 1500"><rect width="2000" height="1500" fill="#ffffff"></rect><g transform="matrix(0.75,0,0,0.75,249.090909090909,475.399965991478)"><svg viewBox="0 0 396 145" data-background-color="#ffffff" preserveAspectRatio="xMidYMid meet" height="732" width="2000" xmlns="http://www.w3.org/2000/svg" xmlns:xlink="http://www.w3.org/1999/xlink"><g id="tight-bounds" transform="matrix(1,0,0,1,0.2400000000000091,0.026420639773590437)"><svg viewBox="0 0 395.52 144.94715872045282" height="144.94715872045282" width="395.52"><g><svg viewBox="0 0 670.3193068594179 245.65351679999995" height="144.94715872045282" width="395.52"><g transform="matrix(1,0,0,1,272.821706859418,33.711054136178504)"><svg viewBox="0 0 397.4975999999999 178.23140852764294" height="178.23140852764294" width="397.4975999999999"><g id="textblocktransform"><svg viewBox="0 0 397.4975999999999 178.23140852764294" height="178.23140852764294" width="397.4975999999999" id="textblock"><g><rect width="397.4975999999999" height="10.3782486026977" x="0" y="127.30807450070442" fill="#f84e45" opacity="1" stroke-width="0" stroke="transparent" fill-opacity="1" class="rect-yte-0" data-fill-palette-color="primary" rx="1%" id="yte-0" data-palette-color="#f84e45"></rect></g><g transform="matrix(1,0,0,1,0.9887999999999693,0)"><svg viewBox="0 0 395.52 115.08238897396629" height="115.08238897396629" width="395.52"><g transform="matrix(1,0,0,1,0,0)"><svg width="395.52" viewBox="1.05 -37.5 130.58999999999997 38" height="115.08238897396629" data-palette-color="#f84e45"><path d="M1.05-34.05L1.05-35 16-35Q22.95-35 26.43-33.13 29.9-31.25 29.9-26.8L29.9-26.8Q29.9-19.95 21.65-18.6L21.65-18.6 21.65-18.5Q31.65-17.25 31.65-9.8L31.65-9.8Q31.65-4.35 27.55-2.18 23.45 0 15.75 0L15.75 0 1.05 0 1.05-0.95 4.3-0.95 4.3-34.05 1.05-34.05ZM15.2-17.7L14.05-17.7 14.05-0.95 16.4-0.95Q19.15-0.95 20.25-2.85 21.35-4.75 21.35-8.45L21.35-8.45 21.35-11.1Q21.35-14.4 20-16.05 18.65-17.7 15.2-17.7L15.2-17.7ZM15.65-34.05L14.05-34.05 14.05-18.65 15.35-18.65Q17.95-18.65 18.98-20.23 20-21.8 20-25.05L20-25.05 20-27.4Q20-31.1 19.1-32.58 18.2-34.05 15.65-34.05L15.65-34.05ZM33.25-36.6L33.25-37.5 45.5-37.5 45.5-0.9 48.3-0.9 48.3 0 33.45 0 33.45-0.9 36.2-0.9 36.2-36.6 33.25-36.6ZM65.4-9.85L65.4-9.85 65.4-14.1Q65.4-18.95 64.87-21.18 64.34-23.4 62.45-23.4L62.45-23.4Q61.35-23.4 60.67-22.78 60-22.15 59.7-20.7L59.7-20.7Q59.25-18.45 59.25-13.85L59.25-13.85 59.25-9.95Q59.25-4.5 59.57-3.4 59.9-2.3 60.25-1.6L60.25-1.6Q60.8-0.4 62.4-0.4L62.4-0.4Q64.34-0.4 64.95-2.65L64.95-2.65Q65.4-4.25 65.4-9.85ZM62.3 0.5Q56.05 0.5 52.85-2.7 49.65-5.9 49.65-11.88 49.65-17.85 53.07-21.08 56.5-24.3 62.7-24.3 68.9-24.3 71.95-21.33 75-18.35 75-12.25L75-12.25Q75 0.5 62.3 0.5L62.3 0.5ZM92.54-9.85L92.54-9.85 92.54-14.1Q92.54-18.95 92.02-21.18 91.49-23.4 89.59-23.4L89.59-23.4Q88.49-23.4 87.82-22.78 87.14-22.15 86.84-20.7L86.84-20.7Q86.39-18.45 86.39-13.85L86.39-13.85 86.39-9.95Q86.39-4.5 86.72-3.4 87.04-2.3 87.39-1.6L87.39-1.6Q87.94-0.4 89.54-0.4L89.54-0.4Q91.49-0.4 92.09-2.65L92.09-2.65Q92.54-4.25 92.54-9.85ZM89.44 0.5Q83.19 0.5 79.99-2.7 76.79-5.9 76.79-11.88 76.79-17.85 80.22-21.08 83.64-24.3 89.84-24.3 96.04-24.3 99.09-21.33 102.14-18.35 102.14-12.25L102.14-12.25Q102.14 0.5 89.44 0.5L89.44 0.5ZM113.69-10.35Q113.69-5.1 114.24-3.38 114.79-1.65 116.27-1.65 117.74-1.65 118.82-2.95 119.89-4.25 119.89-6.8L119.89-6.8 119.89-17.7Q119.89-19.85 119.04-21.35 118.19-22.85 116.54-22.85 114.89-22.85 114.29-20.65 113.69-18.45 113.69-12.95L113.69-12.95 113.69-10.35ZM131.64 0L120.54 0 119.99-3.5Q118.29 0.5 113.09 0.5L113.09 0.5Q108.79 0.5 106.42-2.6 104.04-5.7 104.04-11.85L104.04-11.85Q104.04-24.3 113.94-24.3L113.94-24.3Q118.34-24.3 119.74-21.85L119.74-21.85 119.74-36.6 116.69-36.6 116.69-37.5 129.19-37.5 129.19-0.9 131.64-0.9 131.64 0Z" opacity="1" transform="matrix(1,0,0,1,0,0)" fill="#f84e45" class="wordmark-text-0" data-fill-palette-color="primary" id="text-0"></path></svg></g></svg></g><g transform="matrix(1,0,0,1,0,149.91200863014024)"><svg viewBox="0 0 232.209792 28.31939989750271" height="28.31939989750271" width="232.209792"><g transform="matrix(1,0,0,1,0,0)"><svg width="232.209792" viewBox="1.05 -38.65 320.98701361098 39.15" height="28.31939989750271" data-palette-color="#f84e45"><path d="M1.05-34.05L1.05-35 16-35Q22.95-35 26.43-33.13 29.9-31.25 29.9-26.8L29.9-26.8Q29.9-19.95 21.65-18.6L21.65-18.6 21.65-18.5Q31.65-17.25 31.65-9.8L31.65-9.8Q31.65-4.35 27.55-2.18 23.45 0 15.75 0L15.75 0 1.05 0 1.05-0.95 4.3-0.95 4.3-34.05 1.05-34.05ZM15.2-17.7L14.05-17.7 14.05-0.95 16.4-0.95Q19.15-0.95 20.25-2.85 21.35-4.75 21.35-8.45L21.35-8.45 21.35-11.1Q21.35-14.4 20-16.05 18.65-17.7 15.2-17.7L15.2-17.7ZM15.65-34.05L14.05-34.05 14.05-18.65 15.35-18.65Q17.95-18.65 18.98-20.23 20-21.8 20-25.05L20-25.05 20-27.4Q20-31.1 19.1-32.58 18.2-34.05 15.65-34.05L15.65-34.05ZM33.25-36.6L33.25-37.5 45.5-37.5 45.5-0.9 48.3-0.9 48.3 0 33.45 0 33.45-0.9 36.2-0.9 36.2-36.6 33.25-36.6ZM65.4-9.85L65.4-9.85 65.4-14.1Q65.4-18.95 64.87-21.18 64.34-23.4 62.45-23.4L62.45-23.4Q61.35-23.4 60.67-22.78 60-22.15 59.7-20.7L59.7-20.7Q59.25-18.45 59.25-13.85L59.25-13.85 59.25-9.95Q59.25-4.5 59.57-3.4 59.9-2.3 60.25-1.6L60.25-1.6Q60.8-0.4 62.4-0.4L62.4-0.4Q64.34-0.4 64.95-2.65L64.95-2.65Q65.4-4.25 65.4-9.85ZM62.3 0.5Q56.05 0.5 52.85-2.7 49.65-5.9 49.65-11.88 49.65-17.85 53.07-21.08 56.5-24.3 62.7-24.3 68.9-24.3 71.95-21.33 75-18.35 75-12.25L75-12.25Q75 0.5 62.3 0.5L62.3 0.5ZM92.54-9.85L92.54-9.85 92.54-14.1Q92.54-18.95 92.02-21.18 91.49-23.4 89.59-23.4L89.59-23.4Q88.49-23.4 87.82-22.78 87.14-22.15 86.84-20.7L86.84-20.7Q86.39-18.45 86.39-13.85L86.39-13.85 86.39-9.95Q86.39-4.5 86.72-3.4 87.04-2.3 87.39-1.6L87.39-1.6Q87.94-0.4 89.54-0.4L89.54-0.4Q91.49-0.4 92.09-2.65L92.09-2.65Q92.54-4.25 92.54-9.85ZM89.44 0.5Q83.19 0.5 79.99-2.7 76.79-5.9 76.79-11.88 76.79-17.85 80.22-21.08 83.64-24.3 89.84-24.3 96.04-24.3 99.09-21.33 102.14-18.35 102.14-12.25L102.14-12.25Q102.14 0.5 89.44 0.5L89.44 0.5ZM113.69-10.35Q113.69-5.1 114.24-3.38 114.79-1.65 116.27-1.65 117.74-1.65 118.82-2.95 119.89-4.25 119.89-6.8L119.89-6.8 119.89-17.7Q119.89-19.85 119.04-21.35 118.19-22.85 116.54-22.85 114.89-22.85 114.29-20.65 113.69-18.45 113.69-12.95L113.69-12.95 113.69-10.35ZM131.64 0L120.54 0 119.99-3.5Q118.29 0.5 113.09 0.5L113.09 0.5Q108.79 0.5 106.42-2.6 104.04-5.7 104.04-11.85L104.04-11.85Q104.04-24.3 113.94-24.3L113.94-24.3Q118.34-24.3 119.74-21.85L119.74-21.85 119.74-36.6 116.69-36.6 116.69-37.5 129.19-37.5 129.19-0.9 131.64-0.9 131.64 0ZM143.69 0.5L143.09 0.5 143.09-8.45 143.69-8.45Q144.99-4.1 147.19-2.35 149.39-0.6 152.69-0.6L152.69-0.6Q157.79-0.6 157.79-3.85L157.79-3.85Q157.79-5.25 156.54-5.95L156.54-5.95Q154.59-7.05 151.54-7.65L151.54-7.65Q148.14-8.55 145.84-10.05L145.84-10.05Q143.09-11.85 143.09-15.75 143.09-19.65 145.49-21.98 147.89-24.3 151.89-24.3L151.89-24.3Q154.34-24.3 156.94-23.15L156.94-23.15Q157.89-22.75 158.39-22.75 158.89-22.75 159.24-23.1 159.59-23.45 160.09-24.4L160.09-24.4 160.64-24.4 160.64-16.75 160.04-16.75Q157.49-23.25 152.14-23.25L152.14-23.25Q149.79-23.25 148.64-22.43 147.49-21.6 147.49-20.35L147.49-20.35Q147.49-19.6 147.84-19.18 148.19-18.75 148.39-18.55 148.59-18.35 149.04-18.13 149.49-17.9 149.79-17.78 150.09-17.65 150.71-17.45 151.34-17.25 151.64-17.2L151.64-17.2Q155.04-16.35 156.54-15.73 158.04-15.1 159.39-14.2L159.39-14.2Q162.14-12.3 162.14-8.08 162.14-3.85 159.64-1.68 157.14 0.5 152.79 0.5L152.79 0.5Q149.69 0.5 146.79-0.95L146.79-0.95Q146.19-1.35 145.84-1.35L145.84-1.35Q144.74-1.35 143.69 0.5L143.69 0.5ZM175.63-11.75L175.63-11.75 177.08-11.75 177.08-15.6Q177.08-20.35 176.56-21.98 176.03-23.6 174.53-23.6L174.53-23.6Q173.63-23.6 172.91-23.13 172.18-22.65 172.18-21.83 172.18-21 172.48-20.15L172.48-20.15 173.73-20.15Q174.13-19.1 174.13-17.63 174.13-16.15 172.88-15.08 171.63-14 169.73-14L169.73-14Q165.43-14 165.43-18.15L165.43-18.15Q165.43-24.3 175.88-24.3L175.88-24.3Q181.83-24.3 184.11-22.28 186.38-20.25 186.38-14.85L186.38-14.85 186.38-4.7Q186.38-2.1 187.83-2.1L187.83-2.1Q189.53-2.1 189.83-7.25L189.83-7.25 190.58-7.2Q190.38-2.8 188.93-1.15 187.48 0.5 184.18 0.5L184.18 0.5Q178.18 0.5 177.28-3.2L177.28-3.2Q176.63-1.3 175.33-0.4 174.03 0.5 171.53 0.5L171.53 0.5Q164.13 0.5 164.13-5.55L164.13-5.55Q164.13-9.1 166.96-10.43 169.78-11.75 175.63-11.75ZM173.63-5.6Q173.63-3 173.91-2.25 174.18-1.5 174.96-1.5 175.73-1.5 176.41-2.78 177.08-4.05 177.08-6.3L177.08-6.3 177.08-10.95 176.73-10.95Q173.63-10.95 173.63-6.4L173.63-6.4 173.63-5.6ZM189.63-22.9L187.58-22.9 187.58-23.8 202.53-23.8 202.53-22.9 199.38-22.9 205.38-6.3 210.78-22.9 207.43-22.9 207.43-23.8 214.18-23.8 214.18-22.9 211.98-22.9 204.58 0 198.88 0 189.63-22.9ZM226.58 0.5Q220.13 0.5 216.9-2.83 213.68-6.15 213.68-12.08 213.68-18 217.3-21.15 220.93-24.3 226.53-24.3L226.53-24.3Q237.88-24.3 237.43-12.9L237.43-12.9 223.33-12.9 223.33-10.95Q223.33-6.05 224.58-3.55 225.83-1.05 228.93-1.05L228.93-1.05Q234.73-1.05 236.53-7.25L236.53-7.25 237.43-7.1Q236.48-3.5 234-1.5 231.53 0.5 226.58 0.5L226.58 0.5ZM223.38-16.35L223.38-13.9 228.53-13.9 228.53-16.35Q228.53-20.4 228.05-21.88 227.58-23.35 226.15-23.35 224.73-23.35 224.05-21.78 223.38-20.2 223.38-16.35L223.38-16.35ZM248.02-36.6L248.02-37.5 260.27-37.5 260.27-0.9 263.07-0.9 263.07 0 248.22 0 248.22-0.9 250.97-0.9 250.97-36.6 248.02-36.6ZM271.37-27.25Q268.72-27.25 267.6-28.6 266.47-29.95 266.47-31.95 266.47-33.95 267.7-35.25 268.92-36.55 271.42-36.55 273.92-36.55 275.22-35.38 276.52-34.2 276.52-32.02 276.52-29.85 275.27-28.55 274.02-27.25 271.37-27.25ZM263.82-22.9L263.82-23.8 276.07-23.8 276.07-0.9 278.87-0.9 278.87 0 264.02 0 264.02-0.9 266.77-0.9 266.77-22.9 263.82-22.9ZM295.02-37.8L295.02-37.8Q293.12-37.8 292.52-36.38 291.92-34.95 291.92-31.8L291.92-31.8 291.92-23.8 298.52-23.8 298.52-22.9 291.92-22.9 291.92-0.9 298.02-0.9 298.02 0 279.87 0 279.87-0.9 282.62-0.9 282.62-22.9 279.72-22.9 279.72-23.8 282.62-23.8 282.62-24Q282.62-31.2 285.37-34.93 288.12-38.65 294.57-38.65L294.57-38.65Q298.82-38.65 300.67-36.98 302.52-35.3 302.52-33.1 302.52-30.9 301.37-29.8 300.22-28.7 298.32-28.7 296.42-28.7 295.39-29.68 294.37-30.65 294.37-31.93 294.37-33.2 294.67-34.4L294.67-34.4 296.57-34.4Q297.57-37.8 295.02-37.8ZM311.17 0.5Q304.72 0.5 301.49-2.83 298.27-6.15 298.27-12.08 298.27-18 301.89-21.15 305.52-24.3 311.12-24.3L311.12-24.3Q322.47-24.3 322.02-12.9L322.02-12.9 307.92-12.9 307.92-10.95Q307.92-6.05 309.17-3.55 310.42-1.05 313.52-1.05L313.52-1.05Q319.32-1.05 321.12-7.25L321.12-7.25 322.02-7.1Q321.07-3.5 318.59-1.5 316.12 0.5 311.17 0.5L311.17 0.5ZM307.97-16.35L307.97-13.9 313.12-13.9 313.12-16.35Q313.12-20.4 312.64-21.88 312.17-23.35 310.74-23.35 309.32-23.35 308.64-21.78 307.97-20.2 307.97-16.35L307.97-16.35Z" opacity="1" transform="matrix(1,0,0,1,0,0)" fill="#f84e45" class="slogan-text-1" data-fill-palette-color="secondary" id="text-1"></path></svg></g></svg></g></svg></g></svg></g><g><svg viewBox="0 0 245.65351679999995 245.65351679999995" height="245.65351679999995" width="245.65351679999995"><g><svg xmlns="http://www.w3.org/2000/svg" xmlns:xlink="http://www.w3.org/1999/xlink" version="1.1" x="0" y="0" viewBox="16.2 16.2 67.6 67.6" style="enable-background:new 0 0 100 100;" xml:space="preserve" height="245.65351679999995" width="245.65351679999995" class="icon-icon-0" data-fill-palette-color="accent" id="icon-0"><g fill="#f84e45" data-fill-palette-color="accent"><path d="M64.2 46.2C64.2 48.5 63.2 50.7 61.5 52.3L51.6 61.4C51.1 61.8 50.6 62 50 62S48.8 61.8 48.4 61.4L38.5 52.3C36.7 50.7 35.8 48.5 35.8 46.2S36.8 41.7 38.5 40.1C41.6 37.2 46.9 37.2 50 40 53.1 37.2 58.4 37.2 61.5 40.1 63.3 41.7 64.2 43.9 64.2 46.2" fill="#f84e45" data-fill-palette-color="accent"></path><path d="M50 16.2C31.3 16.2 16.2 31.4 16.2 50 16.2 68.7 31.4 83.8 50 83.8 68.7 83.8 83.8 68.6 83.8 50 83.8 31.3 68.7 16.2 50 16.2M50 79C34 79 21 66 21 50S34 21 50 21 79 34 79 50 66 79 50 79" fill="#f84e45" data-fill-palette-color="accent"></path></g></svg></g></svg></g></svg></g><defs></defs></svg><rect width="395.52" height="144.94715872045282" fill="none" stroke="none" visibility="hidden"></rect></g></svg></g></svg>